<?xml version="1.0" encoding="UTF-8"?>
<svg id="Layer_1" data-name="Layer 1" xmlns="http://www.w3.org/2000/svg" xmlns:xlink="http://www.w3.org/1999/xlink" version="1.1" viewBox="0 0 460 190">
  <defs>
    <style>
      .cls-1 {
        fill: #1d2b5a;
      }

      .cls-1, .cls-2, .cls-3, .cls-4, .cls-5, .cls-6, .cls-7, .cls-8, .cls-9, .cls-10, .cls-11, .cls-12, .cls-13, .cls-14, .cls-15, .cls-16, .cls-17, .cls-18, .cls-19, .cls-20, .cls-21, .cls-22, .cls-23, .cls-24 {
        stroke-width: 0px;
      }

      .cls-2, .cls-25 {
        fill: #010101;
      }

      .cls-3 {
        fill: #ffd983;
      }

      .cls-26 {
        clip-path: url(#clippath);
      }

      .cls-4 {
        fill: none;
      }

      .cls-27 {
        font-size: 12px;
      }

      .cls-27, .cls-28 {
        fill: #231f20;
        font-family: Arial-BoldMT, Arial;
        font-weight: 700;
      }

      .cls-5 {
        fill: #ac5f27;
      }

      .cls-6 {
        fill: #ffcb05;
      }

      .cls-7 {
        fill: #fcee1f;
      }

      .cls-8 {
        fill: #e95a6f;
      }

      .cls-9 {
        fill: #8868ad;
      }

      .cls-28 {
        font-size: 8.1px;
      }

      .cls-10 {
        fill: #1e1853;
      }

      .cls-11 {
        fill: #5fa9dd;
      }

      .cls-12 {
        fill: url(#linear-gradient);
        isolation: isolate;
        opacity: .2;
      }

      .cls-13 {
        fill: #7451a1;
      }

      .cls-29 {
        letter-spacing: 0em;
      }

      .cls-14 {
        fill: #f26e6c;
      }

      .cls-15 {
        fill: #e50d88;
      }

      .cls-16 {
        fill: #78b354;
      }

      .cls-30 {
        letter-spacing: 0em;
      }

      .cls-17 {
        fill: #ec7e23;
      }

      .cls-18 {
        fill: #ed1a62;
      }

      .cls-31 {
        letter-spacing: 0em;
      }

      .cls-19 {
        fill: #ffc121;
      }

      .cls-32 {
        opacity: .9;
      }

      .cls-33 {
        font-family: ArialMT, Arial;
        font-size: 17.8px;
      }

      .cls-33, .cls-21 {
        fill: #4674ba;
      }

      .cls-20 {
        fill: #3b89c3;
      }

      .cls-25 {
        stroke: #010101;
        stroke-linecap: round;
        stroke-linejoin: round;
        stroke-width: 1.1px;
      }

      .cls-22 {
        fill: #fbab36;
      }

      .cls-23 {
        fill: #e6b359;
      }

      .cls-24 {
        fill: #fff;
      }
    </style>
    <clipPath id="clippath">
      <rect class="cls-4" x="202.2" y="70.6" width="55.6" height="48.6"/>
    </clipPath>
    <linearGradient id="linear-gradient" x1="407.9" y1="17.5" x2="407.9" y2="52.1" gradientTransform="translate(0 60)" gradientUnits="userSpaceOnUse">
      <stop offset="0" stop-color="#fff" stop-opacity=".8"/>
      <stop offset=".6" stop-color="#fff" stop-opacity=".4"/>
      <stop offset="1" stop-color="#fff" stop-opacity="0"/>
    </linearGradient>
  </defs>
  <g>
    <path class="cls-2" d="M57.5,80.8l-9.5-8.4c-.5-.5-1.2-.7-1.9-.7h-25.4c-1.5,0-2.7,1.1-2.7,2.4v42.4c0,1.3,1.2,2.4,2.7,2.4h35c1.5,0,2.7-1.1,2.7-2.4v-34.1c0-.6-.3-1.2-.8-1.7ZM47.7,74.4l7.5,6.6h-6.8c-.4,0-.8-.3-.8-.7v-5.9h0ZM55.6,117.3H20.6c-.5,0-.9-.4-.9-.8v-42.4c0-.4.4-.8.9-.8h25.3v7.1c0,1.2,1.1,2.2,2.6,2.2h8v34c0,.4-.4.8-.9.8Z"/>
    <text class="cls-28" transform="translate(29.5 98.3)"><tspan x="0" y="0">VCF</tspan></text>
  </g>
  <g>
    <path class="cls-2" d="M109.9,80.8l-9.5-8.4c-.5-.5-1.2-.7-1.9-.7h-25.4c-1.5,0-2.7,1.1-2.7,2.4v42.4c0,1.3,1.2,2.4,2.7,2.4h35c1.5,0,2.7-1.1,2.7-2.4v-34.1c0-.6-.3-1.2-.8-1.7ZM100.1,74.4l7.5,6.6h-6.8c-.4,0-.8-.3-.8-.7v-5.9h0ZM108,117.3h-35c-.5,0-.9-.4-.9-.8v-42.4c0-.4.4-.8.9-.8h25.3v7.1c0,1.2,1.1,2.2,2.6,2.2h8v34c0,.4-.4.8-.9.8Z"/>
    <text class="cls-28" transform="translate(78.4 98.3)"><tspan class="cls-31" x="0" y="0">F</tspan><tspan x="4.5" y="0">AS</tspan><tspan class="cls-30" x="15.7" y="0">T</tspan><tspan class="cls-29" x="20" y="0">A</tspan></text>
  </g>
  <g>
    <path class="cls-2" d="M162.5,80.8l-9.5-8.4c-.5-.5-1.2-.7-1.9-.7h-25.4c-1.5,0-2.7,1.1-2.7,2.4v42.4c0,1.3,1.2,2.4,2.7,2.4h35c1.5,0,2.7-1.1,2.7-2.4v-34.1c0-.6-.3-1.2-.8-1.7ZM152.7,74.4l7.5,6.6h-6.8c-.4,0-.8-.3-.8-.7v-5.9h0ZM160.6,117.3h-35c-.5,0-.9-.4-.9-.8v-42.4c0-.4.4-.8.9-.8h25.3v7.1c0,1.2,1.1,2.2,2.6,2.2h8v34c0,.4-.4.8-.9.8Z"/>
    <text class="cls-28" transform="translate(127.8 98.3)"><tspan x="0" y="0">BIGWIG</tspan></text>
  </g>
  <g>
    <path class="cls-2" d="M57.5,23.1l-9.5-8.4c-.5-.5-1.2-.7-1.9-.7h-25.4c-1.5,0-2.7,1.1-2.7,2.4v42.4c0,1.3,1.2,2.4,2.7,2.4h35c1.5,0,2.7-1.1,2.7-2.4V24.7c0-.6-.3-1.2-.8-1.7ZM47.7,16.7l7.5,6.6h-6.8c-.4,0-.8-.3-.8-.7v-5.9h0ZM55.6,59.6H20.6c-.5,0-.9-.4-.9-.8V16.4c0-.4.4-.8.9-.8h25.3v7.1c0,1.2,1.1,2.2,2.6,2.2h8v34c0,.4-.4.8-.9.8Z"/>
    <text class="cls-28" transform="translate(28.4 41.4)"><tspan x="0" y="0">BAM</tspan></text>
  </g>
  <g>
    <path class="cls-2" d="M57.5,139l-9.5-8.4c-.5-.5-1.2-.7-1.9-.7h-25.4c-1.5,0-2.7,1.1-2.7,2.4v42.4c0,1.3,1.2,2.4,2.7,2.4h35c1.5,0,2.7-1.1,2.7-2.4v-34.1c0-.6-.3-1.2-.8-1.7ZM47.7,132.6l7.5,6.6h-6.8c-.4,0-.8-.3-.8-.7v-5.9h0ZM55.6,175.6H20.6c-.5,0-.9-.4-.9-.8v-42.4c0-.4.4-.8.9-.8h25.3v7.1c0,1.2,1.1,2.2,2.6,2.2h8v34c0,.4-.4.8-.9.8Z"/>
    <text class="cls-28" transform="translate(29.1 157.1)"><tspan x="0" y="0">BED</tspan></text>
  </g>
  <g>
    <path class="cls-10" d="M377.6,71.1c-1.4,0-2.8-.6-3.6-1.7v6h-2.7v-14.8h2.5v1.6c.9-1.3,2.5-1.9,3.9-1.9,2.8,0,4.8,2.3,4.8,5.4s-2,5.4-4.8,5.4ZM376.7,62.4c-1.6,0-2.9,1.3-2.9,3.4s1.3,3.4,2.9,3.4,2.9-1.3,2.9-3.4-1.3-3.4-2.9-3.4Z"/>
    <path class="cls-10" d="M392.7,70.8v-1.6c-.9,1.3-2.5,1.9-3.9,1.9-2.8,0-4.8-2.3-4.8-5.4s2-5.4,4.8-5.4c1.4,0,3,.7,3.8,1.9v-1.6h2.6v10.2h-2.5ZM389.7,62.4c-1.6,0-2.9,1.3-2.9,3.4s1.3,3.4,2.9,3.4,2.9-1.3,2.9-3.4-1.3-3.3-2.9-3.4Z"/>
    <path class="cls-10" d="M404.8,70.8v-5.7c0-2-.7-2.6-1.9-2.6s-2.7,1.2-2.7,2.6v5.7h-2.7v-10.2h2.5v1.9c.8-1.3,2.3-2.2,3.9-2.2,2.7,0,3.7,1.9,3.7,4.4v6.1h-2.7Z"/>
    <path class="cls-10" d="M417.6,70.8v-1.6c-.9,1.3-2.5,1.9-3.9,1.9-2.8,0-4.8-2.3-4.8-5.4s2-5.4,4.8-5.4,2.8.6,3.6,1.7v-5.4h2.7v14.2h-2.5ZM414.5,62.4c-1.6,0-2.9,1.3-2.9,3.4s1.3,3.4,2.9,3.4,2.9-1.3,2.9-3.4-1.3-3.4-2.9-3.4Z"/>
    <path class="cls-10" d="M430.3,70.8v-1.6c-.9,1.3-2.5,1.9-3.9,1.9-2.8,0-4.8-2.3-4.8-5.4s2-5.4,4.8-5.4c1.4,0,3,.7,3.8,1.9v-1.6h2.6v10.2h-2.5ZM427.3,62.4c-1.6,0-2.9,1.3-2.9,3.4s1.3,3.4,2.9,3.4,2.9-1.3,2.9-3.4-1.3-3.4-2.9-3.4Z"/>
    <path class="cls-10" d="M438.9,71.2c-1.4,0-2.9-.4-4.1-1.2l.4-1.9c.8.5,2.1,1.1,3.6,1.1s1.8-.3,1.8-1.2-.8-1-2.2-1.3c-2.5-.5-3.4-1.9-3.4-3.3,0-1.6,1.3-3.1,4-3.1s3.1.7,3.5.9l-.4,1.8c-.9-.5-1.9-.8-3-.9-1.1,0-1.7.4-1.7,1s.7,1,1.8,1.3c2.7.6,3.8,1.8,3.8,3.2,0,2.2-1.6,3.5-4.2,3.5Z"/>
    <rect class="cls-10" x="403.1" y="25.3" width="3.2" height="6.7"/>
    <rect class="cls-10" x="403.1" y="39" width="3.2" height="6.7"/>
    <rect class="cls-6" x="403.1" y="34" width="3.2" height="3.1"/>
    <rect class="cls-10" x="397.9" y="30.8" width="3.2" height="22.2"/>
    <rect class="cls-10" x="408.1" y="44.5" width="3.2" height="6.7"/>
    <rect class="cls-10" x="408.1" y="30.8" width="3.2" height="6.7"/>
    <rect class="cls-15" x="408.1" y="39.4" width="3.2" height="3.1"/>
    <rect class="cls-10" x="413.2" y="23.6" width="3.2" height="22.2"/>
  </g>
  <g>
    <path class="cls-19" d="M321.4,163.3l6.1-3.5c0,0,0,0,0-.2v-2.1c0-.3-.1-.6-.4-.8-.3-.2-.7-.3-1.1,0l-8.5,4.9c-.3.2-.5.5-.5.8v11c0,.3.1.6.4.8.3.2.7.3,1.1,0l1.8-1c0,0,0,0,0-.2v-8.2c0-.6.3-1.2.9-1.6Z"/>
    <path class="cls-18" d="M335.9,161.7c-.3-.2-.7-.2-1,0l-8.5,4.9c-.3.2-.5.5-.5.8v11.1c0,.5.4,1,1,1,.2,0,.3,0,.5-.1l8.5-4.9c.3-.2.5-.5.5-.8v-11.1c0-.3-.2-.7-.5-.8Z"/>
    <path class="cls-14" d="M326.1,165.9l5.6-3.2c0,0,0,0,0-.2v-2.4c0-.3-.1-.6-.4-.8-.3-.2-.7-.3-1.1,0l-2.3,1.3-6.2,3.5c-.3.2-.5.5-.5.8v11c0,.3.1.6.4.8.3.2.7.3,1.1,0l2.3-1.3c0,0,0,0,0-.2v-7.9c0-.7.3-1.3.9-1.6Z"/>
    <g>
      <path class="cls-1" d="M342.7,170.3v-3.4c0-2.9,1.7-4.8,4.3-4.8s3.1,1,3.6,1.8v-6.1c0-.2.1-.3.3-.3,0,0,0,0,0,0h2.2c.2,0,.3.1.3.3,0,0,0,0,0,0v16.7c0,.2-.1.3-.3.3h-2.1c-.2,0-.3-.1-.3-.3,0,0,0,0,0,0v-1.3c-.5.9-1.8,1.8-3.5,1.8-2.7,0-4.4-1.9-4.4-4.8ZM350.5,169.9v-2.5c0-1.8-1.2-2.8-2.6-2.8s-2.4,1-2.4,2.8v2.5c0,1.8.8,2.7,2.4,2.7s2.6-1,2.6-2.7h0Z"/>
      <path class="cls-1" d="M365.6,166.2v8.3c0,.2-.1.3-.3.3h-2c-.2,0-.3-.1-.3-.3v-1.5c-.8,1.2-2,2-3.6,2-2.4,0-3.9-1.5-3.9-3.8s1.5-3.6,4.8-3.8c.9,0,1.7,0,2.6,0v-1.2c0-1.4-.8-2-2.1-2s-1.8.5-2.1,1.4c0,.2-.2.3-.4.2l-2-.5c-.2,0-.3-.2-.2-.4.4-1.8,2-3,4.8-3,2.9,0,4.7,1.4,4.7,4.1ZM362.9,170.8v-1.5c-.8,0-1.6,0-2.3,0-1.5.2-2.3.7-2.3,1.8s.7,1.7,1.9,1.7c1.3,0,2.2-.7,2.7-2h0Z"/>
      <path class="cls-1" d="M377.4,165c0,.2,0,.4-.2.4l-1.7.6c-.2,0-.4,0-.4-.2-.4-1-1.2-1.5-2.4-1.5s-2,.5-2,1.3.5,1.1,2.9,1.8c2.8.8,4,1.9,4,3.9s-1.9,3.8-4.8,3.8-4.5-1.1-5.1-2.9c0-.2,0-.4.3-.5l1.5-.7c.3,0,.4,0,.5.3.3,1,1.4,1.7,2.8,1.7s2.2-.5,2.2-1.4-.7-1.2-3-1.9c-2.7-.8-3.9-1.8-3.9-3.7s1.8-3.7,4.6-3.7c2.4,0,4.2,1.1,4.8,2.9Z"/>
      <path class="cls-1" d="M390,174.8h-2.4c-.2,0-.3,0-.4-.3l-2.8-5.2-1.7,2v3.2c0,.2-.1.3-.3.3h-2.2c-.2,0-.3-.1-.3-.3v-16.6c0-.2.1-.3.3-.3,0,0,0,0,0,0h2.2c.2,0,.3.1.3.3,0,0,0,0,0,0v10l4.3-5.3c.2-.2.4-.3.6-.3h2.3c.1,0,.3,0,.3.2,0,0,0,.1,0,.2l-3.8,4.4,4,7.2c.1.2,0,.4-.2.4Z"/>
    </g>
  </g>
  <g>
    <path class="cls-2" d="M335.3,34.9h0c-7.4,0-13.4-6-13.4-13.4h0c0-7.4,6-13.4,13.4-13.4h0c7.4,0,13.4,6,13.4,13.4h0c0,7.4-6,13.4-13.4,13.4Z"/>
    <path class="cls-7" d="M342.5,19.5h-2.6v4h2.6c1.1,0,2-.9,2-2s-.9-2-2-2"/>
    <path class="cls-7" d="M327,21.5c0,3.1,2.5,5.6,5.6,5.6s5.6-2.5,5.6-5.6-2.5-5.6-5.6-5.6-5.6,2.5-5.6,5.6h0"/>
    <path class="cls-2" d="M322.2,44.4v5.6c0,1.2-.7,2.1-1.8,2.1h-.5c-1,0-1.8-.8-1.8-2.1v-5.6h-2v5.9c0,2.1,1.5,3.7,3.7,3.7h.6c2.2,0,3.7-1.5,3.7-3.7v-5.9h-2ZM340.1,47.8l3.6-3.8h-2.7l-3.2,3.4v-5.7h-1.9v12.2h1.9v-3.6l.9-1,3.2,4.6h2.4l-4.2-6.1ZM309.6,51.9h-2.4v-8.2h2.3c1.8,0,3.3,1.9,3.3,4.1s-1.4,4.2-3.3,4.2ZM309.6,41.6h-4.3v12.2h4.3c2.9,0,5.2-2.7,5.2-6.1,0-3.3-2.4-6.1-5.2-6.1ZM350,51.9h-2.3v-8.2h2.3c1.8,0,3.3,1.9,3.3,4.1,0,2.3-1.4,4.2-3.3,4.2ZM350,41.6h-4.3v12.2h4.3c2.9,0,5.2-2.7,5.2-6.1,0-3.3-2.3-6.1-5.2-6.1ZM361.7,51.9h-3v-3.4h3c.9,0,1.7.8,1.7,1.7,0,1-.8,1.7-1.7,1.7ZM358.7,46.5v-2.9h2.4c.8,0,1.5.6,1.5,1.5s-.7,1.5-1.5,1.5h-2.4ZM363.8,47.2c.4-.6.7-1.3.7-2.1,0-1.9-1.6-3.4-3.4-3.4h-4.3v12.2h5c2,0,3.6-1.6,3.6-3.7s-.6-2.3-1.6-3ZM329.7,46.2h.5c1.2,0,2.1.8,2.1,1.9h2c0-2.1-1.9-3.8-4.1-3.8h-.5c-2.2,0-4,1.8-4,4v1.7c0,2.2,1.8,4,4,4h.5c2.3,0,4.2-1.7,4.2-3.8h-2c0,1-1,1.8-2.2,1.8h-.5c-1.1,0-2.1-.9-2.1-2v-1.7c0-1.1.9-2.1,2.1-2.1Z"/>
  </g>
  <g>
    <path class="cls-21" d="M356,82.9h1.3c.3,0,.6.3.6.6v11.2c0,.3-.3.6-.6.6h-1.3c-.3,0-.6-.3-.6-.6v-11.2c0-.3.3-.6.6-.6ZM359.6,86.2h1.3c.3,0,.6.3.6.6v7.6c0,.3-.3.6-.6.6h-1.3c-.3,0-.6-.3-.6-.6v-7.6c0-.3.3-.6.6-.6ZM363.3,90.4h1.3c.3,0,.6.3.6.6v2.2c0,.3-.3.6-.6.6h-1.3c-.3,0-.6-.3-.6-.6v-2.2c0-.3.3-.6.6-.6,0,0,0,0,0,0h0ZM352.3,81.8h1.3c.3,0,.6.3.6.6v2.2c0,.3-.3.6-.6.6h-1.3c-.3,0-.6-.3-.6-.6v-2.2c0-.3.3-.6.6-.6h0ZM352.3,86.2h1.3c.3,0,.6.3.6.6v2c0,.3-.3.6-.6.6h-1.3c-.3,0-.6-.3-.6-.6v-2c0-.3.3-.6.6-.6h0ZM352.3,90.4h1.3c.3,0,.6.3.6.6v3.3c0,.3-.3.6-.6.6h-1.3c-.3,0-.6-.3-.6-.6v-3.3c0-.3.3-.6.6-.6h0ZM348.6,80.9h1.3c.3,0,.6.3.6.6v3.4c0,.3-.3.6-.6.6h-1.3c-.3,0-.6-.3-.6-.6v-3.4c0-.3.3-.6.6-.6h0ZM348.6,86.7h1.3c.3,0,.6.3.6.6v6.5c0,.3-.3.6-.6.6h-1.3c-.3,0-.6-.3-.6-.6v-6.5c0-.3.3-.6.6-.6h0ZM345,79.8h1.3c.3,0,.6.3.6.6v13.8c0,.3-.3.6-.6.6h-1.3c-.3,0-.6-.3-.6-.6v-13.8c0-.3.3-.6.6-.6ZM345,110.5h1.3c.3,0,.6.3.6.6v2.2c0,.3-.3.6-.6.6h-1.3c-.3,0-.6-.3-.6-.6v-2.2c0-.3.3-.6.6-.6h0ZM341.2,107.6h1.3c.3,0,.6.3.6.6v5.1c0,.3-.3.6-.6.6h-1.3c-.3,0-.6-.3-.6-.6v-5.1c0-.3.3-.6.6-.6h0ZM341.2,92.2h1.3c.3,0,.6.3.6.6v3.4c0,.3-.3.6-.6.6,0,0,0,0,0,0h-1.3c-.3,0-.6-.3-.6-.6v-3.4c0-.3.3-.6.6-.6h0ZM341.2,78.9h1.3c.3,0,.6.3.6.6v10.9c0,.3-.3.6-.6.6h-1.3c-.3,0-.6-.3-.6-.6v-10.9c0-.3.3-.6.6-.6h0ZM337.5,79.1h1.3c.3,0,.6.3.6.6v6.3c0,.3-.3.6-.6.6h-1.3c-.3,0-.6-.3-.6-.6v-6.3c0-.3.3-.6.6-.6h0ZM337.5,87.8h1.3c.3,0,.6.3.6.6v18.5c0,.3-.3.6-.6.6h-1.3c-.3,0-.6-.3-.6-.6v-18.5c0-.3.3-.6.6-.6h0ZM337.5,108.7h1.3c.3,0,.6.3.6.6v3.4c0,.3-.3.6-.6.6h-1.3c-.3,0-.6-.3-.6-.6v-3.4c0-.3.3-.6.6-.6h0ZM333.9,79.6h1.3c.3,0,.6.3.6.6,0,0,0,0,0,0v14.8c0,.3-.3.6-.6.6h-1.3c-.3,0-.6-.3-.6-.6v-14.8c0-.3.3-.6.6-.6h0ZM333.9,96.9h1.3c.3,0,.6.3.6.6v11.8c0,.3-.3.6-.6.6h-1.3c-.3,0-.6-.3-.6-.6v-11.8c0-.3.3-.6.6-.6h0ZM330.2,79.1h1.3c.3,0,.6.3.6.6v9.6c0,.3-.3.6-.6.6h-1.3c-.3,0-.6-.3-.6-.6v-9.6c0-.3.3-.6.6-.6h0ZM330.2,91.1h1.3c.3,0,.6.3.6.6v8c0,.3-.3.6-.6.6h-1.3c-.3,0-.6-.3-.6-.6v-8c0-.3.3-.6.6-.6ZM330.2,101.4h1.3c.3,0,.6.3.6.6v3.6c0,.3-.3.6-.6.6h-1.3c-.3,0-.6-.3-.6-.6v-3.6c0-.3.3-.6.6-.6ZM326.5,78.8h1.3c.3,0,.6.3.6.6v4.4c0,.3-.3.6-.6.6h-1.3c-.3,0-.6-.3-.6-.6v-4.3c0-.3.3-.6.6-.6h0ZM326.5,85.5h1.3c.3,0,.6.3.6.6v16.7c0,.3-.3.6-.6.6h-1.3c-.3,0-.6-.3-.6-.6v-16.7c0-.3.3-.6.6-.6h0ZM322.8,110.1h1.3c.3,0,.6.3.6.6h0v2.5c0,.3-.3.6-.6.6h-1.3c-.3,0-.6-.3-.6-.6v-2.5c0-.3.3-.6.6-.6ZM322.8,78h1.3c.3,0,.6.3.6.6v15.4c0,.3-.3.6-.6.6h-1.3c-.3,0-.6-.3-.6-.6v-15.4c0-.3.3-.6.6-.6h0ZM322.8,95.8h1.3c.3,0,.6.3.6.6v6.3c0,.3-.3.6-.6.6h-1.3c-.3,0-.6-.3-.6-.6v-6.3c0-.3.3-.6.6-.6h0ZM319.2,107.4h1.3c.3,0,.6.3.6.6v5.3c0,.3-.3.6-.6.6h-1.3c-.3,0-.6-.3-.6-.6h0v-5.2c0-.3.3-.6.6-.6h0ZM319.2,89.3h1.3c.3,0,.6.3.6.6v12.9c0,.3-.3.6-.6.6h-1.3c-.3,0-.6-.3-.6-.6v-12.9c0-.3.3-.6.6-.6h0ZM319.2,77.8h1.3c.3,0,.6.3.6.6v9.1c0,.3-.3.6-.6.6h-1.3c-.3,0-.6-.3-.6-.6v-9.1c0-.3.3-.6.6-.6h0ZM315.5,78h1.3c.3,0,.6.3.6.6v2.2c0,.3-.3.6-.6.6h-1.3c-.3,0-.6-.3-.6-.6v-2.2c0-.3.3-.6.6-.6h0ZM315.5,82.4h1.3c.3,0,.6.3.6.6v16.7c0,.3-.3.6-.6.6h-1.3c-.3,0-.6-.3-.6-.6v-16.7c0-.3.3-.6.6-.6h0ZM315.5,101.4h1.3c.3,0,.6.3.6.6v4.5c0,.3-.3.6-.6.6h-1.3c-.3,0-.6-.3-.6-.6v-4.5c0-.3.3-.6.6-.6ZM315.5,108.3h1.3c.3,0,.6.3.6.6v2.9c0,.3-.3.6-.6.6h-1.3c-.3,0-.6-.3-.6-.6v-2.9c0-.3.3-.6.6-.6ZM311.8,79.5h1.3c.3,0,.6.3.6.6v10.9c0,.3-.3.6-.6.6h-1.3c-.3,0-.6-.3-.6-.6v-10.9c0-.3.3-.6.6-.6h0ZM311.8,92.7h1.3c.3,0,.6.3.6.6v2.5c0,.3-.3.6-.6.6h-1.3c-.3,0-.6-.3-.6-.6v-2.5c0-.3.3-.6.6-.6h0ZM311.8,97.3h1.3c.3,0,.6.3.6.6v11.2c0,.3-.3.6-.6.6h-1.3c-.3,0-.6-.3-.6-.6v-11.2c0-.3.3-.6.6-.6h0ZM307.9,88.5h1.7c.2,0,.4.2.4.4v8.3c0,.2-.2.4-.4.4h-1.7c-.2,0-.4-.2-.4-.4v-8.3c0-.2.2-.4.4-.4,0,0,0,0,0,0h0ZM307.9,98.9h1.7c.2,0,.4.2.4.4v7.5c0,.2-.2.4-.4.4h-1.7c-.2,0-.4-.2-.4-.4v-7.5c0-.2.2-.4.4-.4h0ZM307.9,80.9h1.7c.2,0,.4.2.4.4v5.8c0,.2-.2.4-.4.4h-1.7c-.2,0-.4-.2-.4-.4v-5.8c0-.2.2-.4.4-.4h0,0ZM304.3,82.7h1.7c.2,0,.4.2.4.4v8.7c0,.2-.2.4-.4.4h-1.7c-.2,0-.4-.2-.4-.4v-8.7c0-.2.2-.4.4-.4ZM304.3,93.3h1.7c.2,0,.4.2.4.4v11.8c0,.2-.2.4-.4.4h-1.7c-.2,0-.4-.2-.4-.4v-11.8c0-.2.2-.4.4-.4h0ZM300.7,110.5h1.3c.3,0,.6.3.6.6h0v2.2c0,.3-.3.6-.6.6h-1.3c-.3,0-.6-.3-.6-.6v-2.2c0-.3.3-.6.6-.6h0ZM300.6,102.8h1.7c.2,0,.4.2.4.4v3.8c0,.2-.2.4-.4.4h-1.7c-.2,0-.4-.2-.4-.4v-3.8c0-.2.2-.4.4-.4h0ZM300.6,88.5h1.7c.2,0,.4.2.4.4v12.3c0,.2-.2.4-.4.4h-1.7c-.2,0-.4-.2-.4-.4v-12.3c0-.2.2-.4.4-.4h0ZM296.9,106.5h1.7c.2,0,.4.2.4.4v6.6c0,.2-.2.4-.4.4h-1.7c-.2,0-.4-.2-.4-.4v-6.6c0-.2.2-.4.4-.4h0ZM297.1,96.8h1.3c.3,0,.6.3.6.6v7.6c0,.3-.3.6-.6.6h-1.3c-.3,0-.6-.3-.6-.6v-7.6c0-.3.3-.6.6-.6h0ZM293.2,104.9h1.7c.2,0,.4.2.4.4v6.2c0,.2-.2.4-.4.4h-1.7c-.2,0-.4-.2-.4-.4v-6.2c0-.2.2-.4.4-.4h0Z"/>
    <text class="cls-33" transform="translate(303.1 134)"><tspan x="0" y="0">Polars</tspan></text>
  </g>
  <g>
    <path class="cls-2" d="M110.5,139l-9.5-8.4c-.5-.5-1.2-.7-1.9-.7h-25.4c-1.5,0-2.7,1.1-2.7,2.4v42.4c0,1.3,1.2,2.4,2.7,2.4h35c1.5,0,2.7-1.1,2.7-2.4v-34.1c0-.6-.3-1.2-.8-1.7ZM100.7,132.6l7.5,6.6h-6.8c-.4,0-.8-.3-.8-.7v-5.9h0ZM108.6,175.6h-35c-.5,0-.9-.4-.9-.8v-42.4c0-.4.4-.8.9-.8h25.3v7.1c0,1.2,1.1,2.2,2.6,2.2h8v34c0,.4-.4.8-.9.8Z"/>
    <text class="cls-28" transform="translate(77.8 156.5)"><tspan class="cls-31" x="0" y="0">F</tspan><tspan x="4.5" y="0">ASTQ</tspan></text>
  </g>
  <g>
    <path class="cls-2" d="M110.5,23.1l-9.5-8.4c-.5-.5-1.2-.7-1.9-.7h-25.4c-1.5,0-2.7,1.1-2.7,2.4v42.4c0,1.3,1.2,2.4,2.7,2.4h35c1.5,0,2.7-1.1,2.7-2.4V24.7c0-.6-.3-1.2-.8-1.7ZM100.7,16.7l7.5,6.6h-6.8c-.4,0-.8-.3-.8-.7v-5.9h0ZM108.6,59.6h-35c-.5,0-.9-.4-.9-.8V16.4c0-.4.4-.8.9-.8h25.3v7.1c0,1.2,1.1,2.2,2.6,2.2h8v34c0,.4-.4.8-.9.8Z"/>
    <text class="cls-28" transform="translate(75.6 41.4)"><tspan x="0" y="0">BIGBED</tspan></text>
  </g>
  <g>
    <path class="cls-2" d="M161.9,23.1l-9.5-8.4c-.5-.5-1.2-.7-1.9-.7h-25.4c-1.5,0-2.7,1.1-2.7,2.4v42.4c0,1.3,1.2,2.4,2.7,2.4h35c1.5,0,2.7-1.1,2.7-2.4V24.7c0-.6-.3-1.2-.8-1.7ZM152.1,16.7l7.5,6.6h-6.8c-.4,0-.8-.3-.8-.7v-5.9h0ZM159.9,59.6h-35c-.5,0-.9-.4-.9-.8V16.4c0-.4.4-.8.9-.8h25.3v7.1c0,1.2,1.1,2.2,2.6,2.2h8v34c0,.4-.4.8-.9.8Z"/>
    <text class="cls-28" transform="translate(134.9 41.4)"><tspan x="0" y="0">GTF</tspan></text>
  </g>
  <g class="cls-26">
    <g>
      <polygon class="cls-25" points="209.1 77.6 226.5 94.9 209.1 112.3 209.1 105.4 219.6 94.9 209.1 84.5 209.1 77.6"/>
      <polygon class="cls-25" points="221.3 77.6 238.7 94.9 221.3 112.3 221.3 105.4 231.7 94.9 221.3 84.5 221.3 77.6"/>
      <polygon class="cls-25" points="233.5 77.6 250.8 94.9 233.5 112.3 233.5 105.4 243.9 94.9 233.5 84.5 233.5 77.6"/>
    </g>
  </g>
  <text class="cls-27" transform="translate(137.7 171)"><tspan x="0" y="0">...</tspan></text>
  <g>
    <path class="cls-16" d="M132.2,158.8l2.2,2.2-.6.6-2.2-2.2.6-.6Z"/>
    <path class="cls-3" d="M134.3,160.9l2.2,2.2-.6.6-2.2-2.2.6-.6Z"/>
    <path class="cls-22" d="M134.3,157.5l2.2,2.2-.6.6-2.2-2.2.6-.6Z"/>
    <path class="cls-8" d="M136,159.2l2.2,2.2-.6.6-2.2-2.2.6-.6ZM138.5,153.3l2.2,2.2-.6.6-2.2-2.2.6-.6Z"/>
    <path class="cls-22" d="M140.2,155l2.2,2.2-.6.6-2.2-2.2.6-.6Z"/>
    <path class="cls-16" d="M139.8,151.3l2.2,2.2-.6.6-2.2-2.2.6-.6Z"/>
    <path class="cls-3" d="M141.9,153.4l2.2,2.2-.6.6-2.2-2.2.6-.6Z"/>
    <path class="cls-22" d="M141.4,149.6l2.2,2.2-.6.6-2.2-2.2.6-.6Z"/>
    <path class="cls-8" d="M143.5,151.7l2.2,2.2-.6.6-2.2-2.2.6-.6ZM145.7,145.3l2.2,2.2-.6.6-2.2-2.2.6-.6Z"/>
    <path class="cls-22" d="M147.8,147.4l2.2,2.2-.6.6-2.2-2.2.6-.6Z"/>
    <path class="cls-16" d="M147.4,143.6l2.2,2.2-.6.6-2.2-2.2.6-.6Z"/>
    <path class="cls-3" d="M149.5,145.7l2.2,2.2-.6.6-2.2-2.2.6-.6Z"/>
    <path class="cls-9" d="M146.1,142.7c-1.6,1.6-1.6,3.9-1.5,6.2.3,0,.6,0,1,0,.2,0,.5,0,.7,0-.1-2.1-.1-4,1-5.1.5-.4.6-1,.3-1.4-.3-.3-1-.3-1.5.2Z"/>
    <path class="cls-20" d="M138.6,158.4v-1.7c-.1-.3-.1-.6-.1-.8-.2-.2-1.6-.2-1.7-.1,0,.3,0,.6,0,.8,0,.3,0,1.4,0,1.7,0,.6,0,1.1,0,1.7.2.2,1.5.3,1.7.1,0-.6,0-1.1,0-1.7Z"/>
    <path class="cls-11" d="M138.7,160.1h-1.7c0,1.3-.2,2.5-1.1,3.3-.3.3-.3.9,0,1.2.2.2.4.2.6.2s.4,0,.6-.2c1.5-1.5,1.6-4.5,1.6-4.5Z"/>
    <path class="cls-9" d="M146.3,150.7c-.3,0-.6,0-1,0-.2,0-.5,0-.7,0,.1,2.1.1,4-1,5.1-1.1,1.1-3,1.1-5.1,1-.2,0-1.4,0-1.7-.1-2.3-.1-4.6,0-6.2,1.5-.3.3-.3.9,0,1.2.2.2.4.2.6.2s.4,0,.6-.2c1.1-1.1,3-1.1,5.1-1,.2,0,1.4,0,1.7.1,2.3.1,4.6,0,6.2-1.5,1.6-1.6,1.6-3.9,1.5-6.2Z"/>
    <path class="cls-13" d="M146.3,150.7c0-.3,0-1.4-.1-1.7,0-.3,0-.6,0-.8-.2,0-1.3,0-1.7-.1,0,.3,0,.6,0,.8,0,.3,0,1.4.1,1.7,0,.6,0,1.1,0,1.7.2,0,1.3,0,1.7.1,0-.6,0-1.1,0-1.7Z"/>
    <path class="cls-11" d="M152.8,147.8c-.3-.3-.9-.4-1.5.2-1.1,1.1-3,1.1-5.1,1-.2,0-1.4,0-1.7-.1-2.3-.1-4.6,0-6.2,1.5s-1.6,3.3-1.6,5.4c.4,0,1.5,0,1.7.1,0-1.7,0-3.3,1.1-4.3,1.1-1.1,3.1-1.1,5.1-1,.2,0,1.4,0,1.7.1,2.3.1,4.6,0,6.2-1.5.6-.6.5-1.1.3-1.4Z"/>
  </g>
  <g>
    <path class="cls-17" d="M433.5,104l-25.5-15.7-25.5,15.7v29.5l25.5,14.7,25.5-14.7v-29.5Z"/>
    <path class="cls-12" d="M407.9,112c9.6,0,17.8-4.3,21.5-10.4l-21.4-12.4h0l-21.5,12.4c3.7,6.1,11.9,10.3,21.5,10.3Z"/>
    <path class="cls-5" d="M435.4,134.2v-31.7l-2.2-1.3-20.7-12-4.5-2.6-4.5,2.6-20.7,12-2.2,1.3v31.7l2.2,1.3,21,12.1,4.2,2.4,4.2-2.4,21-12.1,2.2-1.3ZM382.7,133v-29.2l3.7-2.2,21.5-12.4h0l21.4,12.4,3.8,2.2v29.2l-25.2,14.6-25.2-14.6Z"/>
    <path class="cls-23" d="M407.9,133.9s0,0,0,0h0s0,0,0,0Z"/>
    <g class="cls-32">
      <path class="cls-24" d="M401.6,122v7.4c0,.5,0,1.2,0,1.6h-.9v-1.1h0c-.3.7-1,1.2-2,1.2-1.4,0-2.5-1.3-2.5-3.1,0-2,1.2-3.3,2.6-3.3s1.5.4,1.7.9h0v-3.7h1ZM400.5,127.3c0-.2,0-.3,0-.5-.2-.7-.7-1.3-1.5-1.3s-1.7,1-1.7,2.4.6,2.3,1.7,2.3,1.4-.5,1.5-1.3c0-.2,0-.3,0-.5v-1.1Z"/>
      <path class="cls-24" d="M403.1,126.9c0-.8,0-1.4,0-2h.9v1.1h0c.4-.7,1.1-1.2,2.1-1.2,1.4,0,2.4,1.3,2.4,3.1s-1.3,3.3-2.6,3.3-1.4-.4-1.8-1h0v3.3h-1v-6.6ZM404.1,128.5c0,.2,0,.3,0,.5.2.8.8,1.3,1.6,1.3,1.1,0,1.8-1,1.8-2.4s-.6-2.3-1.7-2.3-1.4.5-1.6,1.4c0,.1,0,.3,0,.5v1h0Z"/>
      <path class="cls-24" d="M409.7,122h1.1v9h-1.1v-9Z"/>
      <path class="cls-24" d="M412.6,124.8l1.3,3.6c.1.4.3.9.4,1.3h0c.1-.4.2-.8.4-1.3l1.1-3.6h1.1l-1.6,4.4c-.8,2.1-1.3,3.2-2,3.8-.5.5-1,.7-1.3.7l-.3-.9c.3-.1.6-.3.9-.5.4-.3.7-.8.9-1.2,0,0,0-.2,0-.3,0,0,0-.2,0-.3l-2.1-5.6h1.2Z"/>
      <path class="cls-24" d="M417.6,126.8c0-.7,0-1.3,0-1.9h.9v1.2h0c.3-.8.9-1.3,1.6-1.3s.2,0,.3,0v1.1c-.1,0-.2,0-.4,0-.7,0-1.3.6-1.4,1.4,0,.2,0,.4,0,.5v3.3h-1v-4.2Z"/>
    </g>
    <path class="cls-24" d="M407.8,146.1l.3.3c0,0,.1.1.2.2h0c0,0,0-.2,0-.3v-.5c-.1,0,0,0,0,0l.4.3c0,0,.2.1.2.2h0c0,0,0-.2,0-.3v-.5c-.1,0,0,0,0,0l.2.9h-.1c0,0-.3-.2-.3-.2,0,0-.1-.1-.2-.2h0c0,0,0,.2,0,.3v.4c0,0,0,0,0,0l-.7-.6h.1Z"/>
    <path class="cls-24" d="M409,145.4l.3.3c0,0,.1.1.2.2h0c0,0,0-.2,0-.3v-.5c-.1,0,0,0,0,0l.4.3c0,0,.2.1.2.2h0c0,0,0-.2,0-.3v-.5c-.1,0,0,0,0,0l.2.9h-.1c0,0-.3-.2-.3-.2,0,0-.1-.1-.2-.2h0c0,0,0,.2,0,.3v.4c0,0,0,0,0,0l-.7-.6h.1Z"/>
    <path class="cls-24" d="M410.2,144.7l.3.3c0,0,.1.1.2.2h0c0,0,0-.2,0-.3v-.5c-.1,0,0,0,0,0l.4.3c0,0,.2.1.2.2h0c0,0,0-.2,0-.3v-.5c-.1,0,0,0,0,0l.2.9h-.1c0,0-.3-.2-.3-.2,0,0-.1-.1-.2-.2h0c0,0,0,.2,0,.3v.4c0,0,0,0,0,0l-.7-.6h.1Z"/>
    <path class="cls-24" d="M411.7,144.8c0,0,0-.1,0-.2,0,0,0,0,0,0,0,0,.1,0,.2,0,0,0,0,.1,0,.2,0,0-.1,0-.1,0,0,0,0,0,0,0Z"/>
    <path class="cls-24" d="M411.8,144.2c0,0-.1-.2-.1-.2h.1c0,0,0,0,0,0h0c0-.1,0-.2.1-.3,0,0,0,0,0,0h0c0,.1,0,.1,0,.2,0,0-.1.2,0,.3,0,0,0,0,0,0l.2.4h-.1c0,0-.3-.5-.3-.5Z"/>
    <path class="cls-24" d="M412.5,144.3c0,0,.1,0,.2,0,.1,0,.1-.1,0-.2s-.1,0-.2,0c-.2,0-.3,0-.3,0,0-.1,0-.3.1-.4,0,0,.1,0,.2,0h0c0,.1-.1.1-.2.2,0,0,0,.1,0,.2,0,0,0,0,0,0,0,0,.1,0,.2,0,.2,0,.3,0,.3.1,0,.1,0,.3-.2.4,0,0-.2,0-.3,0h0Z"/>
    <path class="cls-24" d="M412.8,142.9v.2c.1,0,.3-.1.3-.1h0c0,.1-.2.2-.2.2l.2.4c0,0,.1.1.2,0,0,0,0,0,0,0h0c0,.1,0,.2-.1.2,0,0-.1,0-.2,0,0,0-.1,0-.2-.2l-.2-.4h-.1c0,0,0,0,0,0h.1c0,0-.1-.3-.1-.3h.1Z"/>
    <path class="cls-24" d="M414.3,143.1c0,0,0,.1.1.2h-.1c0,0,0,0,0,0h0c0,.1,0,.2-.2.3-.1,0-.3,0-.5-.2l-.3-.5h.1c0,0,.2.4.2.4,0,.1.2.2.3.1,0,0,.1-.1.1-.2,0,0,0,0,0,0l-.3-.5h.1c0,0,.3.5.3.5Z"/>
    <path class="cls-24" d="M414.7,141.6l.6.9c0,0,0,.1.1.2h-.1c0,0,0,0,0,0h0c0,.1,0,.2-.2.3-.2.1-.4,0-.6-.2-.1-.3,0-.5.1-.6,0,0,.2,0,.3,0h0l-.3-.5h.1ZM414.9,142.4s0,0,0,0c0,0-.2-.1-.3,0-.1,0-.2.3,0,.4,0,.2.2.2.4.2,0,0,.1-.2.1-.3,0,0,0,0,0,0h0Z"/>
    <path class="cls-24" d="M415.2,141.6c0,0,0,.1,0,.1s-.1,0-.1,0c0,0,0-.1,0-.1h0s.1,0,.1,0t0,0ZM415.6,142.7l-.5-.8h.1c0,0,.5.7.5.7h-.1Z"/>
    <path class="cls-24" d="M416.4,141.6c.2.3,0,.5-.1.6-.2.1-.5,0-.6-.2-.1-.3,0-.5.1-.6s.5,0,.6.2ZM415.8,142c0,.2.3.2.4.2s.2-.3,0-.4c0-.1-.2-.3-.4-.2s-.1.3,0,.4h0Z"/>
    <path class="cls-24" d="M416.7,141.9c0,0,0-.1,0-.1,0,0,.1,0,.1,0,0,0,0,.1,0,.1s-.1,0-.1,0c0,0,0,0,0,0Z"/>
    <path class="cls-24" d="M417.7,141.4c0,0-.1.1-.2.2-.2.1-.5,0-.6-.2-.1-.2,0-.5.1-.6,0,0,0,0,0,0,0,0,.1,0,.2,0h0c0,.1-.1.1-.2.2-.2.1-.2.3-.1.5.1.2.3.2.4.1,0,0,.1,0,.1-.1h0Z"/>
    <path class="cls-24" d="M418.3,140.5c.2.3,0,.5-.1.6-.2.1-.5,0-.6-.2-.1-.3,0-.5.1-.6s.5,0,.6.2ZM417.7,140.9c0,.2.3.2.4.2s.2-.3,0-.4c0-.1-.2-.3-.4-.2s-.1.3,0,.4Z"/>
    <path class="cls-24" d="M418.4,140.2c0,0,0-.1-.1-.2h.1c0,0,0,0,0,0h0c0-.1,0-.2.2-.3,0,0,.2,0,.3,0h0c0,0,0-.1,0-.1,0,0,0-.1.1-.2.1,0,.3,0,.5.2l.3.5h-.1c0,0-.3-.4-.3-.4,0-.1-.2-.2-.3-.1s-.1.1,0,.2c0,0,0,0,0,0l.3.5h-.1c0,0-.3-.4-.3-.4,0-.1-.2-.2-.3-.1,0,0-.1.2,0,.3l.3.5h-.1c0,0-.3-.5-.3-.5Z"/>
    <path class="cls-24" d="M424,112.2c-.3-.1-.6-.3-.9-.5-1.6-.8-3.1-1.6-4.7-2.4-1.3-.6-2.6-1.2-4.1-1.4-1-.2-2-.2-3-.3-.8,0-1.7-.1-2.5-.2-.6,0-1.1-.4-1.3-.9-.1-.2-.2-.5-.5-.7,0,0,0,0,0-.1,0-.2-.3-.3-.4-.2-.4,0-.7,0-1.1.1-.5.1-1.1.3-1.6.5-.1,0-.2,0-.2.3,0,.2,0,.3,0,.5l-1.5-.5c-.1,0-.3,0-.3.1h-.9c0-.2,0-.4,0-.6,0,0,0,0-.1,0-.9-.1-1.6-.4-2.4-.8,0,0-.2,0-.3,0-1.5,0-3,0-4.6,0-.2,0-.5,0-.7,0,0,0,0,0-.1,0h0c-.2.1-.3.3-.3.5,0,.1,0,.3-.1.4h0c0,0,0,.1.1.2.1.1.3.2.5.4,0,0,.2.1.2.2.8.5,1.6,1.2,2.3,1.8.4.4.8.7,1.2,1.1,0,0,0,0,.1,0,.8.3,1.6.6,2.4.8,0,0,0,0,.1,0,0,0,.2-.2.3-.2.4.2.8.3,1.2.3,0,.2,0,.4-.1.6l1,.4c-.1.1-.2.3-.4.4,0,0,0,.1,0,.2h0c.4.7.8,1.4,1.4,2,.1.1.3.3.4.4,0,0,.4,0,.5,0,0,0,0,0,.1,0,.2,0,.4-.1.6-.2.6-.3,1.1-.1,1.7.2.6.5,1.3,1,1.9,1.5.8.6,1.5,1.2,2.3,1.7,1.1.7,2.3,1.2,3.6,1.6.9.3,1.9.5,2.8.8,0,0,0,0,.1,0,.1,0,.3,0,.4,0,0,0,.1,0,.2,0,.1,0,.2,0,.3,0,0,0,.1,0,.2,0,.3,0,.6.1.8.2l1,.3h0c.2,0,.5.1.7.2h0s0,0,0-.1c0,0,0-.2,0-.3,0,0,0,0,0,0,0-.1,0-.3,0-.4,0-.2.1-.3.1-.5,0-.3-.1-.5-.3-.6-.3-.3-.8-.5-1.2-.7-.9-.3-1.9-.6-2.8-.8-1.1-.3-2.2-.6-3.1-1.1-.8-.4-1.6-.9-2.4-1.3-1-.6-1.9-1.2-2.8-1.9-.4-.3-.7-.5-1.1-.8-.2-.2-.5-.3-.6-.6,0-.2-.2-.3-.4-.4-.5-.3-1.1-.6-1.7-.9-.3-.2-.7-.3-1-.5,0,0-.1,0-.2,0h0c-.2.3-.2.3-.6.1h-.3c.4-.4.6-.9.7-1.3.2,0,.3.2.5,0,0,0,0,0,0,0q0,.3.3.4c.7.2,1.5.4,2.2.6.2,0,.4,0,.7,0,.1,0,.3,0,.4,0,.2,0,.4-.1.7-.1.5,0,1,.2,1.5.2,2.1,0,4.2.5,6.2,1,.9.2,1.7.6,2.5,1,1,.5,2,.9,2.9,1.4.3.1.5.2.8.3,0,0,.2,0,.3,0,0,0,0,0,.1,0h0s0,0,0,0h.2s0,0,0,0h0c0,0,.2,0,.2,0,.1,0,.2,0,.3-.2,0,0,.2,0,.2-.1,0,0,0,0,0,0,0,0,0-.2,0-.3,0,0,0,0,0-.1.1-.1.3-.5.3-.7h0,0ZM396.8,107.3c0,0-.2,0-.3,0-.1,0-.2,0-.3,0,0,0-.2,0-.2,0,0,0,0,0,0,0,0,0,0,0,0,0h0c0,0-.1,0-.2,0,0,0-.1,0-.2,0,0,0,0,0,0,0,0,0-.1,0-.2,0,0,0-.1,0-.2,0,0,0-.1-.2-.2-.1,0,0-.1,0-.1,0,0-.2-.2-.3-.3-.5,0,0,0-.1,0-.2,0,0,.1,0,.2,0,0,0,0,0,0,0,0,0,0,0,.1,0,0,0,.2,0,.2,0,0,0,.1,0,.2,0,0,0,0,0,.1,0,0,0,.1,0,.1,0,0,.1.1.2.3.1,0,0,.2,0,.2,0,0,0,0,0,0,0,0,.1.2.1.4.2.1,0,.3,0,.4.2,0,.1,0,.3,0,.3,0,0,0,0,0,0Z"/>
    <path class="cls-2" d="M398.7,109.4c0-.4,0-.7,0-1.1h-.1c0,.3,0,.7,0,1.1h.1ZM398.3,108.4c0,.3,0,.6,0,.9,0,0,0,0,0,0h.1c0-.3,0-.7,0-1h0s0,0,0,0ZM398.1,108.2h-.1c0,.3,0,.6,0,.9h.1c0-.3,0-.6,0-.9ZM397.8,109c0-.3,0-.6,0-.9h0s0,.1,0,.2c0,.2,0,.4,0,.7h.1ZM397.4,108.2c0,.2,0,.4,0,.7h.1c0-.3,0-.5,0-.7,0,0-.1,0-.1,0h0ZM397,108.6c0-.2,0-.5,0-.7h0c-.2.2,0,.4-.1.7h.1ZM397.2,108.1c0,.2,0,.4,0,.6h.1c0-.2,0-.4,0-.6h0s0,0,0,0h0ZM396.5,107.8h0s0,0,0,0c0,.1,0,.3,0,.4,0,0,0,.1.1.1v-.6ZM396.6,108.4s0,0,0,0h0c0-.2,0-.4,0-.6h0c-.2.1,0,.4-.1.6h0ZM396.1,108.2c0-.2,0-.3,0-.5-.2,0-.1,0-.1.2s0,.2,0,.3h.1ZM394.4,106.6h-.1c0,.1,0,.3,0,.4,0,0,0,0,0,0h0s0-.5,0-.5ZM394.2,106.5h-.1c0,.1,0,.2,0,.3s0,.1.1.1v-.4ZM394,106.8c0-.1,0-.3,0-.4-.1,0-.2,0-.2.4h.1ZM395.7,107.9h.2c0,0,0-.2,0-.4-.2,0,0,.3-.2.4h0ZM406.5,109.2c0,0,0,.1,0,.2,0,0,0,.2.3.2l-.2-.4ZM406.4,109.6h0s-.2-.4-.2-.4h-.1c0,.1.3.4.3.4ZM393.7,106.6c0-.1,0-.3,0-.4-.2,0-.1.2-.2.3h.1ZM406.7,109.4c.1,0,0,.3.3.2-.1-.3-.1-.3-.3-.2h0ZM393.5,106.5c.1-.2.1-.3,0-.4,0,.1-.2.3,0,.4ZM393.1,106.3c.1,0,.2-.1.2-.2,0,0,0,0,0-.1h0c0,.1,0,.2,0,.3ZM395.7,107.8c0-.1,0-.2,0-.3-.2.1-.2.2,0,.3h0ZM393,106s0,0,0-.1h0s0,.2,0,.2h0c0,0,.1,0,.1,0h0ZM395.3,107.7c.2,0,.1-.1.1-.2-.1,0-.1,0-.1.2h0ZM406.1,109.4c0,0,0,.1,0,.1,0,0,0,0,.1.1h0s0-.2,0-.2Z"/>
    <path class="cls-2" d="M423,113c-.4,0-.7,0-1-.2-.8-.4-1.7-.8-2.5-1.2-1-.5-2-.9-3.1-1.3-.9-.3-1.9-.5-2.9-.6-1.9-.2-3.9-.3-5.8-.5-.3,0-.6,0-.9,0-.7,0-.9-.4-1-1,0-.4,0-.9.1-1.3.1-.4.4-.7.8-.8,0,0,0,0,0-.1-.4,0-.7.2-.8.6-.1.2-.2.4-.2.7,0,.4,0,.8,0,1.2,0,.4.3.7.7.8.2,0,.4.1.6.1.1.2.2.3.3.2v-.2c0,0,0,.2.2.2h.1c0,0-.1-.2-.1-.2.2,0,.2,0,.3.2,0,0,0,0,.2,0h0c.2-.1.2.2.5.2l-.2-.3h0s.4.4.4.4c0-.2,0-.2-.1-.3q0,0,.3.3h.1c0,0,0-.1,0-.2s0,0,0,0q.1,0,.2,0c0,0,.1.1.2.2,0,0,0,0,0,0l-.2-.2c.1,0,.2,0,.3,0,0,0,.2.2.3.3h0c0-.1-.2-.3-.2-.3.2,0,.3.3.5.2v-.2c0,0,0,0,0,.1s.1.1.2.2h0c0,0-.2-.3-.2-.3.2,0,.3,0,.4.2,0,0,0,0,.1,0h0s-.1-.2-.1-.2c.2,0,.1,0,.4.3,0,0,0,0,0,0,0,0,0,0,0,0v-.2c-.1,0,0,0,0,0l.2.3h.1c0,0-.2-.3-.2-.3.1,0,.2,0,.2,0,0,0,0,.1.2.2,0,0,0,0,.1,0,0,0,0,0,0-.1,0,0,0-.1-.1-.2.1,0,.2,0,.2.1,0,0,0,.2.3.2v-.2c-.1,0,.1,0,.1,0,0,.2.1.3.2.2,0,0,0,0,0-.1s0,0,0-.1c.2,0,.3.2.4.4h.1s-.1-.3-.1-.3c.2,0,.2,0,.3.2,0,0,0,0,.1.1h0s0-.3,0-.3c0,0,.2,0,.2.1h0c0,0,0,.1.1.2,0,0,0,.1.1.1h0c0-.2-.1-.3-.2-.4h.2c0,.2.1.4.3.4v-.4c-.1,0,0,0,0,0,0,.2.1.3.2.4,0,0,0,0,0,0,0,0,0,0,0,0,0,0,0-.2-.1-.3,0,0,.1,0,.2,0,0,0,0,.2.1.3,0,0,0,0,0,0h0c0-.1,0-.3-.1-.4h.1s.2.5.2.5h0c0-.2,0-.3,0-.4h.2c0,.2,0,.4.2.5h0s-.1-.5-.1-.5h.1c0,.2.1.4.2.5,0,0,0,0,.1,0h0c0-.2,0-.3-.1-.5h.2c0,.2,0,.4.1.6h.1v-.5c0,0,.1,0,.2.4,0,0,0,.1.1.2,0-.1,0-.3,0-.4,0,0,.1,0,.1.1,0,0,0,.2,0,.3,0,0,0,.1,0,.2,0-.2,0-.3,0-.5q.2,0,.3.5h.1c0-.1,0-.3,0-.4.1,0,.2.3.2.7-.1,0-.3-.1-.4-.2-.8-.3-1.6-.5-2.4-.6-1.2-.3-2.4-.5-3.6-.6-.6,0-1.2,0-1.8-.1-.3,0-.7,0-1-.1-.2,0-.5,0-.7.1-.1,0-.3,0-.5,0-.7,0-1.4-.3-2.1-.5-.2,0-.5-.1-.7-.2,0,0-.1,0-.1-.1h0c0-.9,0-1.7,0-2.6,0,0,0-.1.1-.2s.2,0,.3,0c0,0,0,0,0,0,0,0,.1,0,.2,0s0,0,0,0c0,0,0,0,0,0,.1,0,.2-.1.3-.1h0c.1,0,.3,0,.4,0h-.2c.3-.1.6-.2.9-.2.2,0,.3,0,.5,0,.2,0,.4,0,.5.2.2.2.3.5.5.7,0,.1.2.3.3.4.2.3.5.5.8.6.5,0,1.1.1,1.6.2,1.1,0,2.2.1,3.4.2,1.6.1,3.1.6,4.5,1.3,1.8.9,3.6,1.8,5.4,2.7.2.1.4.2.7.3h0c-.3-.2-.6-.4-.8-.5-1.6-.8-3.1-1.6-4.7-2.4-1.3-.6-2.6-1.2-4.1-1.4-1-.2-2-.2-3-.3-.8,0-1.7-.1-2.5-.2-.6,0-1.1-.4-1.3-.9-.1-.2-.2-.5-.5-.7,0,0,0,0,0-.1,0-.2-.3-.3-.4-.2-.4,0-.7,0-1.1.1-.5.1-1.1.3-1.6.5-.1,0-.2,0-.2.3,0,.2,0,.3,0,.5l-1.5-.5c-.1,0-.3,0-.3.1,0,0,0,.1,0,.2l.3.2h0c0-.1-.2-.2-.2-.2,0-.1.2-.1.3,0,0,0,.1,0,.2,0h0s.2,0,.2,0c0,0,0,.1,0,.2,0,.3.2.6.3.9.1,0,.2,0,.1-.1-.1-.3-.2-.6-.4-1h.2c0,.1,0,.2,0,.2.1.3.3.6.4.9h.1s-.5-1.1-.5-1.1h.3c0,.1,0,.2,0,.2,0,.2.2.3.3.5,0,0,0,0,0,.1,0,.4,0,.7,0,1.1h-.2c0,0,0,0,0,0h-.1c0-.2,0-.3,0-.5-.2.1,0,.3-.1.4h-.1c-.1.8-.6,1.3-1.3,1.7-.7.4-1.4.3-2.2-.1l-.3.3c-2.3-1.4-4.6-2.7-6.8-4.3l.2-.5s0,0,.1,0c.5.2,1.1.4,1.6.5,0,0,.1,0,.1.2h0c0,.2,0,.2.2.3,0,.1,0,.3.1.3,0,0,.2,0,.2,0,0,0,0,.2.1.3s.2,0,.3,0q.1.2.4,0c0,0,.1.2.2.2,0,0,.2,0,.3-.1.1.1.3,0,.4,0,0,0,.2,0,.3,0,.6.2,1.2.4,1.8.7,0,0,0,0,0,0,.2-.3.2-.3,0-.4h.1c.1-.3.4-.5.7-.7.5-.3,1-.3,1.6-.3,0,0,0,0,.1,0q0,0,.1-.1h-.7c0-.2,0-.4,0-.5,0,0,0,0-.1,0-.9-.1-1.6-.4-2.4-.8,0,0-.2,0-.3,0-1.5,0-3,0-4.6,0-.2,0-.5,0-.7,0,0,0,0,0-.1,0h0c-.2.1-.3.3-.3.5,0,.1,0,.3-.1.4h0c0,0,0,.1.1.2.1.1.3.2.5.4,0,0,.2.1.2.2.8.5,1.6,1.2,2.3,1.8.4.4.8.7,1.2,1.1,0,0,0,0,.1,0,.8.3,1.6.6,2.4.8,0,0,0,0,.1,0,0,0,.2-.2.3-.2.4.2.8.3,1.2.3,0,.2,0,.4-.1.6l1,.4c-.1.1-.2.3-.4.4,0,0,0,.1,0,.2h0c.4.7.8,1.4,1.4,2,.1.1.3.3.4.4,0,0,.2,0,.3,0,0,0,0,0-.1,0,0,0-.2,0-.3-.1-.4-.4-.7-.9-1.1-1.4h0s0,0,0,0c0,0,0,0,0,0l-.2-.4h0s0,0,0,0h0s0,0,0,0v-.2q-.2-.2,0-.4c0,0,.1,0,.2,0,0,0,0,0,0-.1h0s0,0,0,0c0,0,0,0,0,0,0,0,0,0,.1-.1,0,0,0,0,0-.1,0,0,0,0,.1-.1h0c0-.1,0-.1.1-.2,0,0,0,0,.1-.1h0s0,0,0,0h.1c0-.1,0-.1,0-.1,0,0,0,0,.1,0h0c.2-.2.4-.5.6-.7,0,0,.1,0,.2,0h0c.7.3,1.3.7,2,1,.2.1.5.3.7.4,0,0,.2.1.2.3.1.3.3.5.6.7.7.4,1.3,1,2,1.5.9.7,1.9,1.3,2.9,1.9.6.3,1.2.7,1.8,1,.9.4,1.9.7,2.8,1,1,.3,2,.6,3,.9.4.1.8.3,1,.6.2.3.3.5.1.8l-.2-.3h.2c0,0,0-.2,0-.2-.1,0-.3.2-.4,0,0-.1.3,0,.3-.2-.2,0-.3.1-.5,0,0-.1.3,0,.2-.3l-.5.2c0-.2.3,0,.3-.3l-.5.2c0-.1.3,0,.2-.3l-.5.2c0-.2.3-.2.2-.4l-.5.4c0-.2.3-.2.2-.4,0,0-.2.2-.3.3,0,0-.1,0-.2,0,0,0,.1-.1.2-.1,0,0,.1,0,0-.2,0,0-.2.1-.3.2,0,0-.2,0-.2,0h0s.3-.3.3-.3c0,0,0,0,0-.1-.1,0-.2.2-.3.3-.1.1-.1.1-.3,0,0-.1.3-.1.2-.4l-.5.4c0-.2.2-.2.1-.4l-.3.4h-.1s.2-.4.2-.4h0s-.3.3-.3.3h-.2s.2-.4.2-.4h-.1c0,0-.2.3-.2.3h-.1c0-.2.2-.2,0-.4l-.3.3h-.2c0-.2.2-.2.1-.4-.2,0-.2.3-.4.3h0c0-.1,0-.2.1-.3h0c0-.1-.2.3-.2.3h-.2c0-.2.1-.3.2-.4h0c0,0-.2.3-.2.3h-.1s.2-.3.2-.3c-.1,0-.2,0-.3.3h-.2c0-.1,0-.2,0-.2s0,0,.1-.1h0c0-.1-.3.2-.3.2h-.2c0-.1.1-.2.2-.3,0,0,0,0,0,0-.2,0-.2.3-.4.3,0-.2.1-.3.1-.4-.1,0-.1,0-.3.3h-.1s.2-.3.2-.3h-.1c0,0-.1.2-.3.3,0-.1.1-.2.2-.4-.2,0-.2.2-.3.3h-.2c0,0,.2-.3.2-.3q-.1,0-.3.2h-.1c0-.2.2-.2.1-.5,0,.1-.2.2-.2.3,0,0,0,0-.1,0h0s-.2,0-.2,0l.2-.4c-.3,0-.3.2-.4.3,0-.2.2-.2,0-.4l-.3.4h-.2c0-.2.2-.3.1-.5l-.3.4h-.1s.2-.4.2-.4c-.2,0-.2.2-.3.3h-.1c0-.2.3-.3.3-.5-.2,0-.3.2-.4.4h-.1c0,0,.3-.4.3-.4h0c-.2,0-.2.2-.4.3h-.1c0-.2.2-.2.2-.3,0,0,0,0,0-.2-.1,0-.2.2-.3.2,0,0,0,0,0,0,0,0,0,0,0-.1,0,0,.2-.2.3-.3-.3,0-.3.2-.5.3h0c0-.1.2-.2.3-.3h0c0-.1-.3.2-.3.2h-.1c0,0,.3-.4.3-.4h0c-.2,0-.2.1-.3.2-.1,0-.1,0,0-.2,0,0,0-.1.1-.2h0c0,0-.3.2-.3.2h-.1c0,0,.2-.3.2-.3h0c0,0-.2.1-.2.1h0s.2-.3.2-.3h0c0,0-.2.2-.2.2h-.2c0-.1.2-.4.2-.4h-.1c0,0-.2.2-.2.2h-.1c0-.2,0-.3,0-.4h0s-.2.2-.2.2h-.1c0-.2,0-.2.1-.3h-.1c0,0-.1.1-.1.1h-.1c0,0,.1-.3.1-.3-.2,0-.2.1-.3.1h-.1c0,0,.1-.3.1-.3h0c0,0-.2.1-.2.1h0c0,0,.1-.2.1-.2h0c0,0-.2,0-.2,0h-.1c0-.2,0-.3,0-.4h0s-.2.2-.2.2h-.1c0-.2,0-.3,0-.4-.2,0-.1.1-.2.2h-.1c0-.1,0-.2.1-.3h-.1s0,0-.1.1h-.1c0,0,.2-.4.2-.4-.2,0-.2.2-.3.2h-.1c0,0,.1-.2.1-.2h-.1c0,0,0,0,0,0h-.1c0,0,0-.2,0-.2h0s0,0-.1,0h-.1c0,0,.1-.3.1-.3q-.1,0-.2,0h-.1c0,0,0-.3,0-.3h-.1s0,0,0,.1c-.2,0-.2,0-.1-.3,0,0,0,0,0-.2l-.2.2h-.1c0-.1.1-.2,0-.3h-.1c0,.1-.1,0-.1,0v-.2c.1,0,.1,0,.1,0,0,0-.2,0-.2.2h0c0-.1.1-.2.2-.3h-.1c0,0-.2.2-.2.2h-.1c0-.1.2-.3.2-.3h-.1c0,0-.2.1-.2.1h-.1c0,0,.2-.3.2-.3,0,0,0-.1-.2,0,0,0,0,0-.2.1,0,0,0,0-.1,0h0c0-.1.1-.2.2-.2,0,0,0-.1,0-.2,0,0-.2.2-.3.3,0,0,0,0-.1,0-.3,0-.6,0-.8.2-.4.3-.8.8-1,1.3-.2.5-.1.9.2,1.2,0,0,.1,0,0-.1-.2-.3-.2-.6-.1-.9.2-.6.6-1,1.1-1.4.2-.2.5-.2.8,0,.3.1.5.3.8.5.5.4,1,.8,1.5,1.1,1.3,1,2.7,1.9,4,2.9,1.1.8,2.3,1.3,3.6,1.6,1.1.3,2.3.7,3.4,1,.5.2,1.1.3,1.6.6.3.2.5.4.5.7,0,.1,0,.3,0,.4h0s0,0,0,0c0-.2,0-.4,0-.6,0-.2.1-.3.1-.5,0-.3-.1-.5-.3-.6-.3-.3-.8-.5-1.2-.7-.9-.3-1.9-.6-2.8-.8-1.1-.3-2.2-.6-3.1-1.1-.8-.4-1.6-.9-2.4-1.3-1-.6-1.9-1.2-2.7-1.9-.4-.3-.7-.5-1.1-.8-.2-.2-.5-.3-.6-.6,0-.2-.2-.3-.4-.4-.5-.3-1.1-.6-1.7-.9-.3-.2-.7-.3-1-.5,0,0-.1,0-.2,0h0c-.2.3-.2.3-.6.1h-.3c.4-.4.6-.9.7-1.3.2,0,.3.2.5,0,0,0,0,0,0,0q0,.3.3.4c.7.2,1.5.4,2.2.6.2,0,.4,0,.7,0,.1,0,.3,0,.4,0,.2,0,.4-.1.7-.1.5,0,1,.2,1.5.2,2.1,0,4.2.5,6.2,1,.9.2,1.7.6,2.5,1,1,.5,2,.9,2.9,1.4.3.1.5.2.8.3.1,0,.3,0,.4,0,0,0,0,0,0,0,0,0,.1,0,.2,0h0c.3,0,.6,0,.8-.2,0,0,0,0,0,0,0,0,0,0,0,0,0,0,0,0,0,0,0,0,0,0,0,0h0s0,0,0,0c0,0,0,0,0,0,0,0,0-.2,0-.3,0,0,0,0,0-.1.1-.1.2-.3.3-.5h-.1c-.2.4-.5.6-.9.6ZM403.7,107.4c0-.2-.1-.3-.2-.5.3,0,.3.1.2.5ZM396.9,107.1c0,0-.2.1-.2.1,0,0-.1,0-.2,0-.1,0-.2,0-.3,0,0,0,0,0,0,0-.1-.3-.2-.3-.4-.1,0,0-.1-.2-.2-.2s-.2,0-.3.1c0-.1,0-.2-.1-.3,0-.1-.2,0-.3,0,0,0,0,0,0,0,0,0,0,0,0,0,0-.1,0-.3-.2-.3,0,0,0,0,0,0,0,0,0-.2,0-.2,0,0,.1,0,.2,0,0,0,0,0,.1,0,.2.1.2.1.3,0,.2.2.2.2.4,0,0,0,0,.1.1.1,0,0,.1,0,.2,0,.1,0,.2,0,.2,0,0,0,.1.1.2,0,0,0,.1,0,.2,0,0,0,0,0,0,0,.1,0,.2,0,.3.1,0,0,0,0,0,.1,0,0,0,0,0,.1h0ZM398.6,105.3l.5.2h0c0,0-.5-.2-.5-.2h0ZM398.2,105.2l.3.3s0,0,0,0l-.3-.3h0ZM397.8,105.2l.3.2h0c0,0-.3-.1-.3-.1h0ZM397.3,105.3h-.5c.2-.1.4,0,.5,0h0ZM392.8,105.5c0-.2.1-.2.3-.2.7,0,1.3,0,2,0,1.8,0,3.6.4,5.4.7q.4,0,.4.5c-.8,0-1.4.4-1.8,1.1-.7-.2-1.4-.5-2-.7-.2,0-.3-.1-.4-.3,0,0,0,0,0-.1l-.2.2s0,0,0,0c0-.2-.1-.3-.3-.1,0,0-.1,0-.1,0,0,0,0,0,0-.1,0-.1-.2-.2-.3,0s0,0,0,0c0,0-.1-.2-.2-.2,0,0-.1,0-.2.2-.1-.1-.2-.2-.4,0,0,0-.1,0-.2,0-.5-.2-1-.3-1.5-.5,0,0,0,0-.1,0,0,0,0,0,0,0h0ZM395.7,108.6h0c0,0,0-.1,0-.2.2,0,.1.1.1.2h0ZM396,108.9c-.2,0-.2-.2-.1-.3.2,0,.2.1.1.3h0ZM396.1,108.7c.2.1,0,.3.1.4-.2,0-.1-.2-.1-.4h0ZM396.5,109.3c-.3,0-.1-.3-.2-.5h.2c0,.1,0,.5,0,.5ZM396.7,109.6c0,0-.1-.1-.1-.2,0-.1,0-.2,0-.3.1,0,.1.2,0,.5ZM397,109.7h-.1c0-.2,0-.3,0-.5,0,0,.1.1.1.2,0,.1,0,.2,0,.4h0ZM397.3,109.8h-.1c0-.2,0-.3,0-.4.2,0,.2.2,0,.4h0ZM397.5,109.9q0,0,0-.3c0,.1,0,.2,0,.3h0ZM397.8,110h-.1c0,0,0-.1,0-.2h0c.1,0,.1,0,0,.2h0ZM398.6,110.3l-.5-.2c0,0,0-.1,0-.2l.5.3h0ZM400.9,111.3c0-.2,0-.3,0-.5,0,0,0,0,0,0h0c0,.2,0,.3,0,.5,0,0,0,.1,0,.2h-.2ZM401.2,111.3h0s0,0,0-.1c0-.1,0-.3,0-.4,0,0,0,0,0-.1h0c0,.3,0,.5,0,.8h-.2ZM401.7,111.6c0,0-.2-.1-.2-.2,0-.2,0-.4,0-.6,0-.2,0-.2.2-.2,0,.3,0,.7,0,1h0ZM402,111.4c0,0,0,.1,0,.2h0c0,0,0,0,0-.1,0-.3,0-.6,0-.9s0-.2.1-.2c0,.4,0,.7,0,1h0ZM402.3,111c0,0,0,.2-.1.3h0c0-.3,0-.6,0-.9,0-.2,0-.2.2-.3,0,.3,0,.6,0,.9h0ZM402.8,110.3h.2c0,0-.3.4-.3.4,0-.1,0-.3,0-.4h0ZM402.7,110.4c0,.1,0,.3,0,.4,0,0,0,.1,0,.2h0c0-.3,0-.5,0-.8.1,0,.2,0,.1.2h0ZM417.3,111.4v-.6c0,0,.1.2.1.7h-.1ZM417.6,111.5c0-.2,0-.4-.1-.7.1,0,.2,0,.3.2,0,.2.1.4.1.6h-.3ZM418,111.7c0-.2,0-.4-.1-.7.3.2.1.5.3.7,0,0,.1,0,0-.1,0-.1,0-.3-.1-.4.1,0,.2,0,.2.2,0,.1,0,.2,0,.3,0,0,0,.2,0,.3l-.5-.2ZM418.7,112c0-.2,0-.4-.1-.7,0,0,.2,0,.2.1,0,.2,0,.4.1.6h-.2ZM419,112.2c0-.2,0-.4,0-.6,0,0,0,0,.1.1,0,.2,0,.4.1.6h-.2ZM419.2,112.3h.1c0-.2,0-.4,0-.6.1,0,.2.1.3.2,0,.2.1.4.2.7l-.4-.3ZM420,112.7h-.2c0-.3-.1-.5,0-.7.2,0,.2,0,.2.2s0,.3.1.5h0ZM420.2,112.7c0-.2,0-.4-.1-.7h.2c0,.4.1.6.2.8h-.3ZM420.6,113s0,0,0,0c0-.2-.1-.4-.2-.6.1,0,.2,0,.2.2,0,.1,0,.3.1.4,0,0,0,0,.1,0h0s-.2-.6-.2-.6h0c0,0,.2,0,.2.1,0,.2.1.4.2.7-.2,0-.4-.2-.6-.3h0ZM421.3,113.3c.1-.2,0-.4,0-.6h.2c0,.3.1.5.1.7h-.3ZM421.7,113.4l-.2-.6s0,0,0,0c0,0,.1,0,.2.1.1.1.2.3.3.4,0,0,0,.1.1.2h-.4ZM422.2,113.4c0-.2-.2-.3-.3-.4.4,0,.5.4.7.6-.2,0-.3,0-.4-.2h0ZM422.8,113.6c0-.1-.2-.3-.3-.4.3,0,.3.3.5.4,0,0-.2,0-.2,0h0ZM423.1,113.5l-.2-.3q.1,0,.4.3h-.1ZM423.4,113.3l-.2-.2h.3c0,0-.1.2-.1.2Z"/>
    <path class="cls-2" d="M420.6,121.2s0,0,0,0c0,0,0,0,0-.1,0,0-.2-.1-.3-.1-2-.5-4-1-5.9-1.5-2.1-.5-4.1-1.5-5.8-2.9-.8-.6-1.6-1.2-2.3-1.8-.1-.1-.3-.2-.4-.3-.3-.2-.8-.3-1.2-.1-.2,0-.5.2-.7.2-.1,0-.2,0-.3,0,0,0,0,0-.1,0,0,0,0,0,0,0,0,0,.2,0,.3,0,.2,0,.4-.1.6-.2.6-.3,1.1-.1,1.7.2.6.5,1.3,1,1.9,1.5.8.6,1.5,1.2,2.3,1.7,1.1.7,2.3,1.2,3.6,1.6,1.1.3,2.1.6,3.2.8,0,0,0,0,0,0,0,0,.1,0,.2,0,0,0,0,0,.1,0h0,0s.7.2.7.2h0c0,0,.2,0,.3,0h0s0,0,0,0l1.2.3h0c.2,0,.5,0,.7.2Z"/>
    <path class="cls-2" d="M402.5,106.6h0s0,0,0,0v.2c0,0,0,0,0,0h-.1c0-.1,0,0,0,0,.4.4.7.9.7,1.6h.1s0,0,0,0c0-.4-.1-.8-.3-1.1,0-.1-.1-.3-.1-.4,0,0,0-.2,0-.3Z"/>
    <path class="cls-2" d="M398.6,109.4h.1c0-.4,0-.7,0-1.1h-.1c0,.3,0,.7,0,1.1Z"/>
    <path class="cls-2" d="M398.4,108.3s0,0,0,0c0,.3,0,.6,0,.9,0,0,0,0,0,0h.1c0-.3,0-.7,0-1h0Z"/>
    <path class="cls-2" d="M398.2,109.1c0-.3,0-.6,0-.9h-.1c0,.3,0,.6,0,.9h.1Z"/>
    <path class="cls-2" d="M397.7,108.9h.1c0-.3,0-.6,0-.9h0s0,.1,0,.2c0,.2,0,.4,0,.7Z"/>
    <path class="cls-2" d="M397.5,108.1c0,0-.1,0-.1,0,0,.2,0,.4,0,.7h.1c0-.3,0-.5,0-.8Z"/>
    <path class="cls-2" d="M396.9,108.5h.1c0-.2,0-.4,0-.7h0c-.2.2,0,.4-.1.7Z"/>
    <path class="cls-2" d="M397.3,108s0,0,0,0c0,.2,0,.4,0,.6h.1c0-.2,0-.4,0-.6h0Z"/>
    <path class="cls-2" d="M396.4,108.3v-.6c0,0,0,0,0,0,0,0,0,0,0,0,0,.1,0,.3,0,.4,0,0,0,.1.1.1Z"/>
    <path class="cls-2" d="M396.7,107.8c-.2.2,0,.4-.1.6,0,0,0,0,0,0h0c0-.2,0-.4,0-.6h0Z"/>
    <path class="cls-2" d="M396,108.1h.1c0-.1,0-.3,0-.4-.2,0-.1,0-.1.2s0,.2,0,.3Z"/>
    <path class="cls-2" d="M394.4,107.1v-.4s-.1,0-.1,0c0,.1,0,.3,0,.4,0,0,0,0,0,0h0Z"/>
    <path class="cls-2" d="M394.2,107v-.4s-.1,0-.1,0c0,0,0,.2,0,.3,0,0,0,.1.1.1Z"/>
    <path class="cls-2" d="M403.5,108.8h.1c0-.2,0-.3,0-.4h0c-.1.1,0,.3,0,.4h0Z"/>
    <path class="cls-2" d="M413.6,117.4h0c0,0,.2-.2.2-.4-.1,0-.3.2-.3.4Z"/>
    <path class="cls-2" d="M393.8,106.8h.1c0-.1,0-.2,0-.4-.1,0-.2,0-.2.4Z"/>
    <path class="cls-2" d="M395.9,107.6c-.2,0,0,.3-.2.4h.2c0,0,0-.2,0-.4Z"/>
    <path class="cls-2" d="M406.7,109.6l-.2-.4c0,0,0,.1,0,.2,0,0,0,.2.3.2Z"/>
    <path class="cls-2" d="M406.2,109.4l.3.3h0s-.2-.4-.2-.4h-.1Z"/>
    <path class="cls-2" d="M393.6,106.6h.1c0,0,0-.2,0-.3-.2,0-.1.2-.2.3Z"/>
    <path class="cls-2" d="M407,109.6c-.1-.3-.1-.3-.3-.2.1,0,0,.3.3.2Z"/>
    <path class="cls-2" d="M393.5,106.1c0,.1-.2.3,0,.4.1-.2.1-.3,0-.4Z"/>
    <path class="cls-2" d="M393.2,106c0,0,0,.2,0,.3.1,0,.2-.1.2-.2,0,0,0,0,0-.1h0Z"/>
    <path class="cls-2" d="M395.7,107.5c-.2.1-.2.2,0,.3,0,0,0-.2,0-.3Z"/>
    <path class="cls-2" d="M392.9,106.1s0,0,.1,0,0,0,0-.1h0s0,.2,0,.2h0Z"/>
    <path class="cls-2" d="M395.4,107.5c-.1,0-.1,0-.1.2.2,0,.1-.1.1-.2Z"/>
    <path class="cls-2" d="M406.2,109.6v-.2c0,0-.1.1-.1.1,0,0,0,0,.1.1h0Z"/>
    <path class="cls-2" d="M398.9,105.9h-.1c0,.3,0,.6.1.8,0,0,.1,0,.1-.1,0-.2,0-.3,0-.5,0,0,0-.1,0-.2Z"/>
    <path class="cls-2" d="M399.2,106.7h.1c0-.3,0-.5-.1-.7,0,0,0-.1-.1,0,0,.3,0,.5.1.8Z"/>
    <path class="cls-2" d="M399.6,106.7c0-.1,0-.2,0-.4,0,0,0-.2,0-.3s0,0-.2,0c0,.1,0,.2,0,.3,0,.1,0,.2,0,.4,0,0,0,0,0,.1h0Z"/>
    <path class="cls-2" d="M398.3,105.9h-.1c0,.3,0,.5,0,.8,0,0,.1,0,.1,0,0-.2,0-.4,0-.7Z"/>
    <path class="cls-2" d="M398.7,106.6s0,0,0,0c0-.2,0-.4-.1-.6,0,0,0,0,0,0,0,0,0,0,0,.1,0,.2,0,.4.1.6h0Z"/>
    <path class="cls-2" d="M398,106.6h.1c0-.3,0-.5,0-.7h0s0,0,0,0c0,.2,0,.4,0,.6Z"/>
    <path class="cls-2" d="M397.8,106.5h.1c0-.2,0-.4,0-.7h-.1c0,.3,0,.5,0,.7Z"/>
    <path class="cls-2" d="M397.6,106.4h.1s0,0,0,0c0-.2,0-.3,0-.5,0,0,0,0,0,0h0s0,.6,0,.6Z"/>
    <path class="cls-2" d="M397.4,105.8s0,0,0,.1c0,.1,0,.2,0,.4h.1c0-.1,0-.3,0-.5h0Z"/>
    <path class="cls-2" d="M397.3,106.2c0-.1,0-.3,0-.4,0,0,0,0-.1,0,0,.2,0,.3,0,.4,0,0,0,0,0,0h0Z"/>
    <path class="cls-2" d="M396.8,105.8c0,0,0,.3.2.4,0-.1,0-.2,0-.4,0,0,0,0-.1,0h0Z"/>
    <path class="cls-2" d="M396.6,105.7s0,0,0,0c0,0,0,.2.2.3,0-.1,0-.2,0-.3h0Z"/>
    <path class="cls-2" d="M394.8,105.8c.1,0,.1,0,.1-.1,0,0,0-.2-.1-.2v.3Z"/>
    <path class="cls-2" d="M394.6,105.8h.2c0,0,0-.2,0-.3-.2,0,0,.2-.1.3Z"/>
    <path class="cls-2" d="M394.5,105.7c0,0,0-.2-.1-.2,0,0,0,.1,0,.2h.1Z"/>
    <path class="cls-2" d="M394.2,105.6c0,0,0-.1,0-.2h0c0,0,0,.1,0,.2,0,0,0,0,0,0h0Z"/>
    <path class="cls-2" d="M396.3,105.8v.2c.1,0,.2,0,.2-.1s0-.1-.2,0Z"/>
    <path class="cls-2" d="M394,105.4h-.2c0,0,.1.2.1.2h0v-.2h0Z"/>
  </g>
</svg>