<?xml version="1.0" encoding="UTF-8"?>
<svg id="Layer_2" data-name="Layer 2" xmlns="http://www.w3.org/2000/svg" version="1.1" viewBox="0 0 313.2 75.7">
  <defs>
    <style>
      .cls-1, .cls-2, .cls-3 {
        fill: none;
        stroke: #231f20;
        stroke-width: 5px;
      }

      .cls-2 {
        stroke-dasharray: 0 0 0 0 0 0 5.4 5.4;
      }

      .cls-3 {
        stroke-linecap: round;
      }

      .cls-4 {
        fill: #231f20;
        stroke: #231f20;
        stroke-miterlimit: 10;
        stroke-width: 1.5px;
      }
    </style>
  </defs>
  <g id="Layer_1-2" data-name="Layer 1-2">
    <path class="cls-4" d="M.8,47c0-3.3.6-6.5,1.6-9.6,1-3.1,2.5-5.8,4.4-8.2,1.9-2.4,4.2-4.3,7-5.7,2.8-1.4,5.9-2.2,9.5-2.2s6.8.7,9.5,2.1c2.8,1.4,5.1,3.3,7,5.7s3.4,5.1,4.4,8.2c1,3.1,1.5,6.3,1.6,9.6v2c0,3.3-.5,6.5-1.5,9.6s-2.4,5.8-4.3,8.2c-1.9,2.4-4.2,4.3-7,5.7-2.8,1.4-5.9,2.2-9.5,2.2s-6.8-.7-9.5-2.1c-2.8-1.4-5.1-3.3-7.1-5.7-1.9-2.4-3.4-5.1-4.4-8.2-1-3.1-1.5-6.3-1.6-9.6v-2h0ZM3.3,49c0,2.9.5,5.8,1.4,8.5.9,2.8,2.2,5.2,3.9,7.4,1.7,2.2,3.8,3.9,6.2,5.2,2.5,1.3,5.3,2,8.5,2s6-.7,8.4-2c2.4-1.3,4.5-3.1,6.2-5.2s3-4.6,3.9-7.4,1.3-5.6,1.4-8.5v-2c0-2.9-.5-5.7-1.4-8.5-.9-2.8-2.2-5.2-3.9-7.4s-3.8-3.9-6.2-5.2-5.3-2-8.4-2-5.9.7-8.4,2c-2.5,1.3-4.5,3.1-6.2,5.2-1.7,2.2-3,4.6-3.9,7.4-.9,2.8-1.4,5.6-1.4,8.5v2h0Z"/>
    <path class="cls-4" d="M87,45.1l18.2-22.8h3.4l-20,25,21,26.4h-3.3l-19.4-24.1-19.3,24.1h-3.4l21-26.4-20-25h3.4l18.2,22.8h0Z"/>
    <path class="cls-4" d="M170.4,48.5c0,2-.2,4-.5,6.1s-.8,4.1-1.5,6c-.7,1.9-1.5,3.8-2.6,5.5s-2.3,3.2-3.8,4.5-3.2,2.3-5.2,3c-1.9.7-4.2,1.1-6.6,1.1s-3.1-.2-4.7-.6c-1.6-.4-3.1-.9-4.6-1.7-1.5-.7-2.8-1.6-4.1-2.7s-2.3-2.3-3.2-3.6v7.6h-2.6V.8h2.6v30.3c.9-1.5,1.9-2.8,3.1-4s2.5-2.2,3.9-3.1c1.4-.8,2.9-1.5,4.5-1.9s3.2-.7,4.9-.7c2.5,0,4.7.4,6.7,1.1,2,.7,3.7,1.7,5.2,3s2.8,2.7,3.8,4.4c1.1,1.7,1.9,3.5,2.6,5.5.7,1.9,1.2,3.9,1.5,6,.3,2.1.5,4.1.5,6.1v1h0ZM167.7,47.5c0-1.7-.2-3.5-.4-5.4s-.7-3.7-1.2-5.4c-.6-1.7-1.3-3.4-2.2-4.9-.9-1.5-2-2.9-3.3-4.1s-2.8-2.1-4.6-2.8c-1.7-.7-3.7-1-6-1s-3.7.3-5.5.9c-1.7.6-3.3,1.5-4.8,2.6-1.4,1.1-2.7,2.4-3.8,4-1.1,1.5-1.9,3.2-2.5,5.1v24.9c.6,1.7,1.5,3.3,2.7,4.6,1.2,1.4,2.5,2.5,4,3.4s3.1,1.6,4.8,2.1,3.4.7,5.1.7,4.2-.3,5.9-1,3.3-1.6,4.5-2.8,2.4-2.5,3.3-4.1c.9-1.5,1.6-3.2,2.2-4.9s.9-3.5,1.2-5.4c.2-1.8.4-3.6.4-5.4v-1h0Z"/>
    <path class="cls-4" d="M271.4,58.8l2,10.1,2.5-10.1,9.2-36.5h2.4l9.2,36.5,2.5,10.1,2-10.1,8.4-36.5h2.7l-11.8,51.4h-2.3l-10.1-38.6-1.7-8.2-1.8,8.2-10,38.6h-2.3l-11.8-51.4h2.7l8.4,36.5h0Z"/>
    <path class="cls-1" d="M235.3,65.5c-10.8,10.4-28,10.2-38.5-.6-10.4-10.8-10.2-28,.6-38.5,10.8-10.4,28-10.2,38.5.6"/>
    <path class="cls-1" d="M235.8,27c.7.7,1.4,1.6,2,2.3"/>
    <path class="cls-2" d="M240.6,33.7c4.4,8.7,3.8,19.3-1.8,27.6"/>
    <path class="cls-1" d="M237.3,63.4c-.6.7-1.3,1.5-2,2.2"/>
    <polyline class="cls-3" points="217.4 32.4 231 46 217.4 59.6"/>
    <polyline class="cls-3" points="204.7 32.4 218.3 46 204.7 59.6"/>
  </g>
</svg>